<?xml version="1.0" encoding="UTF-8"?>
<svg width="141px" height="45px" viewBox="0 0 141 45" version="1.1" xmlns="http://www.w3.org/2000/svg" xmlns:xlink="http://www.w3.org/1999/xlink">
    <!-- Generator: Sketch 41 (35326) - http://www.bohemiancoding.com/sketch -->
    <title>Apple App Store - Large</title>
    <desc>Created with Sketch.</desc>
    <defs></defs>
    <g id="Page-2" stroke="none" stroke-width="1" fill="none" fill-rule="evenodd">
        <g id="A4" transform="translate(-149.000000, -398.000000)">
            <g id="Apple-App-Store---Large" transform="translate(149.000000, 397.000000)">
                <path d="M132.646992,45.9529106 L7.70015023,45.9529106 C3.44783818,45.9529106 0,42.7179964 0,38.7300806 L0,8.22099792 C0,4.23369283 3.44783818,1 7.70015023,1 L132.646992,1 C136.89735,1 140.022096,4.23369283 140.022096,8.22099792 L140.022096,39.4855249 C140.022096,43.4734407 136.89735,45.9529106 132.646992,45.9529106 Z" id="container" fill="#FFFFFF"></path>
                <path d="M13.2924099,8 C12.0263469,8 11,9.1216205 11,10.5106012 L11,36.4893988 C11,37.8759656 12.0252116,39 13.2924099,39 L24.7075901,39 C25.9736531,39 27,37.8783795 27,36.4893988 L27,10.5106012 C27,9.12403444 25.9747884,8 24.7075901,8 L13.2924099,8 L13.2924099,8 Z M12.5,12.0655738 L12.5,34.9344262 L25.5,34.9344262 L25.5,12.0655738 L12.5,12.0655738 L12.5,12.0655738 Z M19,37.9836066 C19.5522847,37.9836066 20,37.5285517 20,36.9672131 C20,36.4058745 19.5522847,35.9508197 19,35.9508197 C18.4477153,35.9508197 18,36.4058745 18,36.9672131 C18,37.5285517 18.4477153,37.9836066 19,37.9836066 L19,37.9836066 Z M17,10.0327869 C17,10.3134562 17.171875,10.5409836 17.398159,10.5409836 L20.601841,10.5409836 C20.8217381,10.5409836 21,10.3052478 21,10.0327869 C21,9.75211759 20.828125,9.52459016 20.601841,9.52459016 L17.398159,9.52459016 C17.1782619,9.52459016 17,9.76032595 17,10.0327869 Z" id="iPhone-Vector" fill="#5D5D5D"></path>
                <path d="M39.1905641,14.6867692 L40.0545641,17.2307692 L41.1705641,17.2307692 L38.4105641,9.14276923 L37.1505641,9.14276923 L34.4025641,17.2307692 L35.4825641,17.2307692 L36.3225641,14.6867692 L39.1905641,14.6867692 Z M36.5385641,13.8707692 L37.3305641,11.5307692 C37.4865641,11.0387692 37.6185641,10.5467692 37.7385641,10.0667692 L37.7625641,10.0667692 C37.8825641,10.5347692 38.0025641,11.0147692 38.1825641,11.5427692 L38.9745641,13.8707692 L36.5385641,13.8707692 Z M41.5905641,11.4227692 L43.7985641,17.2307692 L44.8065641,17.2307692 L47.0865641,11.4227692 L45.9825641,11.4227692 L44.8545641,14.6867692 C44.6625641,15.2147692 44.4945641,15.6947692 44.3625641,16.1747692 L44.3265641,16.1747692 C44.2065641,15.6947692 44.0505641,15.2147692 43.8585641,14.6867692 L42.7185641,11.4227692 L41.5905641,11.4227692 Z M52.4505641,17.2307692 C52.3785641,16.8347692 52.3545641,16.3427692 52.3545641,15.8387692 L52.3545641,13.6667692 C52.3545641,12.5027692 51.9225641,11.2907692 50.1465641,11.2907692 C49.4145641,11.2907692 48.7185641,11.4947692 48.2385641,11.8067692 L48.4785641,12.5027692 C48.8865641,12.2387692 49.4505641,12.0707692 49.9905641,12.0707692 C51.1785641,12.0707692 51.3105641,12.9347692 51.3105641,13.4147692 L51.3105641,13.5347692 C49.0665641,13.5227692 47.8185641,14.2907692 47.8185641,15.6947692 C47.8185641,16.5347692 48.4185641,17.3627692 49.5945641,17.3627692 C50.4225641,17.3627692 51.0465641,16.9547692 51.3705641,16.4987692 L51.4065641,16.4987692 L51.4905641,17.2307692 L52.4505641,17.2307692 Z M51.3345641,15.2747692 C51.3345641,15.3827692 51.3105641,15.5027692 51.2745641,15.6107692 C51.1065641,16.1027692 50.6265641,16.5827692 49.8705641,16.5827692 C49.3305641,16.5827692 48.8745641,16.2587692 48.8745641,15.5747692 C48.8745641,14.4467692 50.1825641,14.2427692 51.3345641,14.2667692 L51.3345641,15.2747692 Z M55.3545641,17.2307692 L55.3545641,11.4227692 L54.2985641,11.4227692 L54.2985641,17.2307692 L55.3545641,17.2307692 Z M54.8265641,9.13076923 C54.4425641,9.13076923 54.1665641,9.41876923 54.1665641,9.79076923 C54.1665641,10.1507692 54.4305641,10.4387692 54.8025641,10.4387692 C55.2225641,10.4387692 55.4865641,10.1507692 55.4745641,9.79076923 C55.4745641,9.41876923 55.2225641,9.13076923 54.8265641,9.13076923 Z M57.3465641,17.2307692 L58.4025641,17.2307692 L58.4025641,8.71076923 L57.3465641,8.71076923 L57.3465641,17.2307692 Z M64.5945641,17.2307692 C64.5225641,16.8347692 64.4985641,16.3427692 64.4985641,15.8387692 L64.4985641,13.6667692 C64.4985641,12.5027692 64.0665641,11.2907692 62.2905641,11.2907692 C61.5585641,11.2907692 60.8625641,11.4947692 60.3825641,11.8067692 L60.6225641,12.5027692 C61.0305641,12.2387692 61.5945641,12.0707692 62.1345641,12.0707692 C63.3225641,12.0707692 63.4545641,12.9347692 63.4545641,13.4147692 L63.4545641,13.5347692 C61.2105641,13.5227692 59.9625641,14.2907692 59.9625641,15.6947692 C59.9625641,16.5347692 60.5625641,17.3627692 61.7385641,17.3627692 C62.5665641,17.3627692 63.1905641,16.9547692 63.5145641,16.4987692 L63.5505641,16.4987692 L63.6345641,17.2307692 L64.5945641,17.2307692 Z M63.4785641,15.2747692 C63.4785641,15.3827692 63.4545641,15.5027692 63.4185641,15.6107692 C63.2505641,16.1027692 62.7705641,16.5827692 62.0145641,16.5827692 C61.4745641,16.5827692 61.0185641,16.2587692 61.0185641,15.5747692 C61.0185641,14.4467692 62.3265641,14.2427692 63.4785641,14.2667692 L63.4785641,15.2747692 Z M67.3065641,17.2307692 L67.3545641,16.2707692 L67.3905641,16.2707692 C67.8225641,17.0387692 68.4945641,17.3627692 69.3345641,17.3627692 C70.6305641,17.3627692 71.9385641,16.3307692 71.9385641,14.2547692 C71.9505641,12.4907692 70.9305641,11.2907692 69.4905641,11.2907692 C68.5545641,11.2907692 67.8825641,11.7107692 67.5105641,12.3587692 L67.4865641,12.3587692 L67.4865641,8.71076923 L66.4425641,8.71076923 L66.4425641,15.7307692 C66.4425641,16.2467692 66.4185641,16.8347692 66.3945641,17.2307692 L67.3065641,17.2307692 Z M67.4865641,13.8587692 C67.4865641,13.6907692 67.5225641,13.5467692 67.5465641,13.4267692 C67.7625641,12.6227692 68.4345641,12.1307692 69.1545641,12.1307692 C70.2825641,12.1307692 70.8825641,13.1267692 70.8825641,14.2907692 C70.8825641,15.6227692 70.2225641,16.5227692 69.1185641,16.5227692 C68.3505641,16.5227692 67.7385641,16.0187692 67.5345641,15.2867692 C67.5105641,15.1667692 67.4865641,15.0347692 67.4865641,14.9027692 L67.4865641,13.8587692 Z M73.5105641,17.2307692 L74.5665641,17.2307692 L74.5665641,8.71076923 L73.5105641,8.71076923 L73.5105641,17.2307692 Z M81.2505641,14.5187692 C81.2625641,14.4107692 81.2865641,14.2427692 81.2865641,14.0267692 C81.2865641,12.9587692 80.7825641,11.2907692 78.8865641,11.2907692 C77.1945641,11.2907692 76.1625641,12.6707692 76.1625641,14.4227692 C76.1625641,16.1747692 77.2305641,17.3507692 79.0185641,17.3507692 C79.9425641,17.3507692 80.5785641,17.1587692 80.9505641,16.9907692 L80.7705641,16.2347692 C80.3745641,16.4027692 79.9185641,16.5347692 79.1625641,16.5347692 C78.1065641,16.5347692 77.1945641,15.9467692 77.1705641,14.5187692 L81.2505641,14.5187692 Z M77.1825641,13.7627692 C77.2665641,13.0307692 77.7345641,12.0467692 78.8025641,12.0467692 C79.9905641,12.0467692 80.2785641,13.0907692 80.2665641,13.7627692 L77.1825641,13.7627692 Z M88.078564,11.2907692 C86.470564,11.2907692 85.198564,12.4307692 85.198564,14.3747692 C85.198564,16.2107692 86.410564,17.3627692 87.982564,17.3627692 C89.386564,17.3627692 90.874564,16.4267692 90.874564,14.2787692 C90.874564,12.5027692 89.746564,11.2907692 88.078564,11.2907692 Z M88.054564,12.0827692 C89.302564,12.0827692 89.794564,13.3307692 89.794564,14.3147692 C89.794564,15.6227692 89.038564,16.5707692 88.030564,16.5707692 C86.998564,16.5707692 86.266564,15.6107692 86.266564,14.3387692 C86.266564,13.2347692 86.806564,12.0827692 88.054564,12.0827692 Z M92.446564,17.2307692 L93.502564,17.2307692 L93.502564,13.7387692 C93.502564,13.5587692 93.526564,13.3787692 93.574564,13.2467692 C93.754564,12.6587692 94.294564,12.1667692 94.990564,12.1667692 C95.986564,12.1667692 96.334564,12.9467692 96.334564,13.8827692 L96.334564,17.2307692 L97.390564,17.2307692 L97.390564,13.7627692 C97.390564,11.7707692 96.142564,11.2907692 95.338564,11.2907692 C94.378564,11.2907692 93.706564,11.8307692 93.418564,12.3827692 L93.394564,12.3827692 L93.334564,11.4227692 L92.398564,11.4227692 C92.434564,11.9027692 92.446564,12.3947692 92.446564,12.9947692 L92.446564,17.2307692 Z M102.370564,10.0307692 L102.370564,11.4227692 L101.470564,11.4227692 L101.470564,12.2267692 L102.370564,12.2267692 L102.370564,15.3947692 C102.370564,16.0787692 102.478564,16.5947692 102.778564,16.9067692 C103.030564,17.1947692 103.426564,17.3507692 103.918564,17.3507692 C104.326564,17.3507692 104.650564,17.2907692 104.854564,17.2067692 L104.806564,16.4147692 C104.674564,16.4507692 104.470564,16.4867692 104.194564,16.4867692 C103.606564,16.4867692 103.402564,16.0787692 103.402564,15.3587692 L103.402564,12.2267692 L104.914564,12.2267692 L104.914564,11.4227692 L103.402564,11.4227692 L103.402564,9.75476923 L102.370564,10.0307692 Z M106.342564,17.2307692 L107.398564,17.2307692 L107.398564,13.7267692 C107.398564,13.5227692 107.410564,13.3667692 107.470564,13.2227692 C107.662564,12.6467692 108.202564,12.1667692 108.886564,12.1667692 C109.882564,12.1667692 110.230564,12.9587692 110.230564,13.8947692 L110.230564,17.2307692 L111.286564,17.2307692 L111.286564,13.7747692 C111.286564,11.7707692 110.038564,11.2907692 109.258564,11.2907692 C108.862564,11.2907692 108.490564,11.4107692 108.178564,11.5907692 C107.854564,11.7707692 107.590564,12.0347692 107.422564,12.3347692 L107.398564,12.3347692 L107.398564,8.71076923 L106.342564,8.71076923 L106.342564,17.2307692 Z M117.910564,14.5187692 C117.922564,14.4107692 117.946564,14.2427692 117.946564,14.0267692 C117.946564,12.9587692 117.442564,11.2907692 115.546564,11.2907692 C113.854564,11.2907692 112.822564,12.6707692 112.822564,14.4227692 C112.822564,16.1747692 113.890564,17.3507692 115.678564,17.3507692 C116.602564,17.3507692 117.238564,17.1587692 117.610564,16.9907692 L117.430564,16.2347692 C117.034564,16.4027692 116.578564,16.5347692 115.822564,16.5347692 C114.766564,16.5347692 113.854564,15.9467692 113.830564,14.5187692 L117.910564,14.5187692 Z M113.842564,13.7627692 C113.926564,13.0307692 114.394564,12.0467692 115.462564,12.0467692 C116.650564,12.0467692 116.938564,13.0907692 116.926564,13.7627692 L113.842564,13.7627692 Z" id="Available-on-the" fill="#606060"></path>
                <path d="M43.8022408,31.2270847 L45.4493558,36.0769231 L47.5768792,36.0769231 L42.3152621,20.6580973 L39.9132195,20.6580973 L34.674479,36.0769231 L36.7333727,36.0769231 L38.3347344,31.2270847 L43.8022408,31.2270847 Z M38.7465131,29.6714762 L40.2563684,25.2105399 C40.5537642,24.2725995 40.8054068,23.3346591 41.0341727,22.4195952 L41.0799259,22.4195952 C41.3086919,23.3117825 41.5374578,24.2268463 41.8806068,25.2334165 L43.3904621,29.6714762 L38.7465131,29.6714762 Z M48.8944027,40.6064891 L50.8846666,40.6064891 L50.8846666,34.5899443 L50.9304198,34.5899443 C51.5938411,35.6880209 52.8749305,36.3285656 54.3390326,36.3285656 C56.9469646,36.3285656 59.3718838,34.3611784 59.3718838,30.3806507 C59.3718838,27.017791 57.3587433,24.753008 54.6821816,24.753008 C52.8749305,24.753008 51.5709645,25.5536889 50.747407,26.903408 L50.7016538,26.903408 L50.6101475,25.0046506 L48.8028964,25.0046506 C48.8486496,26.056974 48.8944027,27.2008038 48.8944027,28.6191528 L48.8944027,40.6064891 Z M50.8846666,29.6714762 C50.8846666,29.396957 50.9532964,29.0995613 51.0219262,28.8479187 C51.4108283,27.3380634 52.6919177,26.3543697 54.0645135,26.3543697 C56.1920369,26.3543697 57.3587433,28.2531272 57.3587433,30.472157 C57.3587433,33.0114592 56.1234071,34.7500805 53.9958837,34.7500805 C52.5546581,34.7500805 51.3421985,33.7892635 50.976173,32.3937911 C50.9304198,32.1421486 50.8846666,31.8676294 50.8846666,31.5702336 L50.8846666,29.6714762 Z M61.101186,40.6064891 L63.0914499,40.6064891 L63.0914499,34.5899443 L63.1372031,34.5899443 C63.8006244,35.6880209 65.0817138,36.3285656 66.5458159,36.3285656 C69.1537479,36.3285656 71.578667,34.3611784 71.578667,30.3806507 C71.578667,27.017791 69.5655266,24.753008 66.8889648,24.753008 C65.0817138,24.753008 63.7777478,25.5536889 62.9541903,26.903408 L62.9084371,26.903408 L62.8169307,25.0046506 L61.0096797,25.0046506 C61.0554328,26.056974 61.101186,27.2008038 61.101186,28.6191528 L61.101186,40.6064891 Z M63.0914499,29.6714762 C63.0914499,29.396957 63.1600797,29.0995613 63.2287095,28.8479187 C63.6176116,27.3380634 64.898701,26.3543697 66.2712968,26.3543697 C68.3988202,26.3543697 69.5655266,28.2531272 69.5655266,30.472157 C69.5655266,33.0114592 68.3301904,34.7500805 66.202667,34.7500805 C64.7614414,34.7500805 63.5489818,33.7892635 63.1829563,32.3937911 C63.1372031,32.1421486 63.0914499,31.8676294 63.0914499,31.5702336 L63.0914499,29.6714762 Z M76.6386333,35.3219954 C77.4621908,35.8710337 79.0864291,36.305689 80.5734079,36.305689 C84.2107866,36.305689 85.9722845,34.2467954 85.9722845,31.8676294 C85.9722845,29.6028464 84.645442,28.3446336 82.03751,27.3380634 C79.9099866,26.5145059 78.9720461,25.8053314 78.9720461,24.3641059 C78.9720461,23.3117825 79.772727,22.0535697 81.8773738,22.0535697 C83.2728462,22.0535697 84.302293,22.5111016 84.8055781,22.7856208 L85.3546164,21.1613824 C84.6683186,20.7724803 83.5244888,20.4064548 81.9460036,20.4064548 C78.9491695,20.4064548 76.9589057,22.1908293 76.9589057,24.5928718 C76.9589057,26.7661485 78.5145142,28.0701144 81.0309398,28.9623017 C83.11271,29.7629826 83.9362675,30.58654 83.9362675,32.0277656 C83.9362675,33.5833741 82.7466845,34.6585741 80.7106674,34.6585741 C79.3380717,34.6585741 78.0341057,34.2010422 77.1419185,33.6520039 L76.6386333,35.3219954 Z M88.2048719,22.3509654 L88.2048719,25.0046506 L86.4891272,25.0046506 L86.4891272,26.5373825 L88.2048719,26.5373825 L88.2048719,32.5768039 C88.2048719,33.8807699 88.4107613,34.8644635 88.9826762,35.459255 C89.4630847,36.0082933 90.2180124,36.305689 91.1559528,36.305689 C91.9337571,36.305689 92.5514252,36.1913061 92.9403273,36.0311699 L92.8488209,34.5213145 C92.5971784,34.5899443 92.2082763,34.6585741 91.6821145,34.6585741 C90.5611613,34.6585741 90.1722592,33.8807699 90.1722592,32.5081741 L90.1722592,26.5373825 L93.0547103,26.5373825 L93.0547103,25.0046506 L90.1722592,25.0046506 L90.1722592,21.8248037 L88.2048719,22.3509654 Z M99.0619361,24.753008 C95.9964722,24.753008 93.571553,26.9262846 93.571553,30.6322932 C93.571553,34.1324124 95.8820892,36.3285656 98.8789233,36.3285656 C101.555485,36.3285656 104.392183,34.5441911 104.392183,30.4492804 C104.392183,27.0635442 102.241783,24.753008 99.0619361,24.753008 Z M99.0161829,26.2628634 C101.395349,26.2628634 102.333289,28.6420293 102.333289,30.5179102 C102.333289,33.0114592 100.892064,34.8187103 98.9704297,34.8187103 C97.0030424,34.8187103 95.60757,32.9885826 95.60757,30.5636634 C95.60757,28.4590166 96.6370169,26.2628634 99.0161829,26.2628634 Z M106.121485,36.0769231 L108.111749,36.0769231 L108.111749,30.1747613 C108.111749,29.8316123 108.157502,29.51134 108.203255,29.2368208 C108.477775,27.7269655 109.484345,26.6517655 110.902694,26.6517655 C111.177213,26.6517655 111.383102,26.6746421 111.588992,26.7203953 L111.588992,24.8216378 C111.405979,24.7758846 111.245843,24.753008 111.017077,24.753008 C109.667358,24.753008 108.454898,25.6909485 107.951613,27.1779272 L107.860107,27.1779272 L107.791477,25.0046506 L106.029979,25.0046506 C106.098609,26.0340974 106.121485,27.1550506 106.121485,28.4590166 L106.121485,36.0769231 Z M121.462362,30.9068124 C121.485239,30.700923 121.530992,30.3806507 121.530992,29.9688719 C121.530992,27.9328549 120.570175,24.753008 116.955673,24.753008 C113.730073,24.753008 111.762685,27.3838166 111.762685,30.7237996 C111.762685,34.0637826 113.798702,36.305689 117.207315,36.305689 C118.968813,36.305689 120.181273,35.9396635 120.890447,35.6193912 L120.547298,34.1781656 C119.792371,34.4984379 118.92306,34.7500805 117.481834,34.7500805 C115.468694,34.7500805 113.730073,33.6291273 113.68432,30.9068124 L121.462362,30.9068124 Z M113.707196,29.4655868 C113.867332,28.0701144 114.75952,26.1942336 116.795537,26.1942336 C119.06032,26.1942336 119.609358,28.1844974 119.586481,29.4655868 L113.707196,29.4655868 Z" id="App-Store" fill="#606060"></path>
            </g>
        </g>
    </g>
</svg>