<svg xmlns="http://www.w3.org/2000/svg" width="143" height="47" viewBox="0 0 143 47">
  <g fill="none" fill-rule="evenodd" transform="translate(1 1)">
    <path fill="#FFF" stroke="#5D5D5D" d="M132.646992,44.9529106 L7.70015023,44.9529106 C3.44783818,44.9529106 0,41.7179964 0,37.7300806 L0,7.22099792 C0,3.23369283 3.44783818,0 7.70015023,0 L132.646992,0 C136.89735,0 140.022096,3.23369283 140.022096,7.22099792 L140.022096,38.4855249 C140.022096,42.4734407 136.89735,44.9529106 132.646992,44.9529106 Z"/>
    <path fill="#5D5D5D" fill-rule="nonzero" d="M13.2924099,7 C12.0263469,7 11,8.1216205 11,9.5106012 L11,35.4893988 C11,36.8759656 12.0252116,38 13.2924099,38 L24.7075901,38 C25.9736531,38 27,36.8783795 27,35.4893988 L27,9.5106012 C27,8.12403444 25.9747884,7 24.7075901,7 L13.2924099,7 Z M12.5,11.0655738 L25.5,11.0655738 L25.5,33.9344262 L12.5,33.9344262 L12.5,11.0655738 Z M19,36.9836066 C18.4477153,36.9836066 18,36.5285517 18,35.9672131 C18,35.4058745 18.4477153,34.9508197 19,34.9508197 C19.5522847,34.9508197 20,35.4058745 20,35.9672131 C20,36.5285517 19.5522847,36.9836066 19,36.9836066 Z M17,9.0327869 C17,8.76032595 17.1782619,8.52459016 17.398159,8.52459016 L20.601841,8.52459016 C20.828125,8.52459016 21,8.75211759 21,9.0327869 C21,9.3052478 20.8217381,9.5409836 20.601841,9.5409836 L17.398159,9.5409836 C17.171875,9.5409836 17,9.3134562 17,9.0327869 Z"/>
    <path fill="#606060" fill-rule="nonzero" d="M39.1905641 13.6867692L40.0545641 16.2307692 41.1705641 16.2307692 38.4105641 8.14276923 37.1505641 8.14276923 34.4025641 16.2307692 35.4825641 16.2307692 36.3225641 13.6867692 39.1905641 13.6867692zM36.5385641 12.8707692L37.3305641 10.5307692C37.4865641 10.0387692 37.6185641 9.5467692 37.7385641 9.0667692L37.7625641 9.0667692C37.8825641 9.5347692 38.0025641 10.0147692 38.1825641 10.5427692L38.9745641 12.8707692 36.5385641 12.8707692zM41.5905641 10.4227692L43.7985641 16.2307692 44.8065641 16.2307692 47.0865641 10.4227692 45.9825641 10.4227692 44.8545641 13.6867692C44.6625641 14.2147692 44.4945641 14.6947692 44.3625641 15.1747692L44.3265641 15.1747692C44.2065641 14.6947692 44.0505641 14.2147692 43.8585641 13.6867692L42.7185641 10.4227692 41.5905641 10.4227692zM52.4505641 16.2307692C52.3785641 15.8347692 52.3545641 15.3427692 52.3545641 14.8387692L52.3545641 12.6667692C52.3545641 11.5027692 51.9225641 10.2907692 50.1465641 10.2907692 49.4145641 10.2907692 48.7185641 10.4947692 48.2385641 10.8067692L48.4785641 11.5027692C48.8865641 11.2387692 49.4505641 11.0707692 49.9905641 11.0707692 51.1785641 11.0707692 51.3105641 11.9347692 51.3105641 12.4147692L51.3105641 12.5347692C49.0665641 12.5227692 47.8185641 13.2907692 47.8185641 14.6947692 47.8185641 15.5347692 48.4185641 16.3627692 49.5945641 16.3627692 50.4225641 16.3627692 51.0465641 15.9547692 51.3705641 15.4987692L51.4065641 15.4987692 51.4905641 16.2307692 52.4505641 16.2307692zM51.3345641 14.2747692C51.3345641 14.3827692 51.3105641 14.5027692 51.2745641 14.6107692 51.1065641 15.1027692 50.6265641 15.5827692 49.8705641 15.5827692 49.3305641 15.5827692 48.8745641 15.2587692 48.8745641 14.5747692 48.8745641 13.4467692 50.1825641 13.2427692 51.3345641 13.2667692L51.3345641 14.2747692zM55.3545641 16.2307692L55.3545641 10.4227692 54.2985641 10.4227692 54.2985641 16.2307692 55.3545641 16.2307692zM54.8265641 8.13076923C54.4425641 8.13076923 54.1665641 8.41876923 54.1665641 8.79076923 54.1665641 9.1507692 54.4305641 9.4387692 54.8025641 9.4387692 55.2225641 9.4387692 55.4865641 9.1507692 55.4745641 8.79076923 55.4745641 8.41876923 55.2225641 8.13076923 54.8265641 8.13076923zM57.3465641 16.2307692L58.4025641 16.2307692 58.4025641 7.71076923 57.3465641 7.71076923 57.3465641 16.2307692zM64.5945641 16.2307692C64.5225641 15.8347692 64.4985641 15.3427692 64.4985641 14.8387692L64.4985641 12.6667692C64.4985641 11.5027692 64.0665641 10.2907692 62.2905641 10.2907692 61.5585641 10.2907692 60.8625641 10.4947692 60.3825641 10.8067692L60.6225641 11.5027692C61.0305641 11.2387692 61.5945641 11.0707692 62.1345641 11.0707692 63.3225641 11.0707692 63.4545641 11.9347692 63.4545641 12.4147692L63.4545641 12.5347692C61.2105641 12.5227692 59.9625641 13.2907692 59.9625641 14.6947692 59.9625641 15.5347692 60.5625641 16.3627692 61.7385641 16.3627692 62.5665641 16.3627692 63.1905641 15.9547692 63.5145641 15.4987692L63.5505641 15.4987692 63.6345641 16.2307692 64.5945641 16.2307692zM63.4785641 14.2747692C63.4785641 14.3827692 63.4545641 14.5027692 63.4185641 14.6107692 63.2505641 15.1027692 62.7705641 15.5827692 62.0145641 15.5827692 61.4745641 15.5827692 61.0185641 15.2587692 61.0185641 14.5747692 61.0185641 13.4467692 62.3265641 13.2427692 63.4785641 13.2667692L63.4785641 14.2747692zM67.3065641 16.2307692L67.3545641 15.2707692 67.3905641 15.2707692C67.8225641 16.0387692 68.4945641 16.3627692 69.3345641 16.3627692 70.6305641 16.3627692 71.9385641 15.3307692 71.9385641 13.2547692 71.9505641 11.4907692 70.9305641 10.2907692 69.4905641 10.2907692 68.5545641 10.2907692 67.8825641 10.7107692 67.5105641 11.3587692L67.4865641 11.3587692 67.4865641 7.71076923 66.4425641 7.71076923 66.4425641 14.7307692C66.4425641 15.2467692 66.4185641 15.8347692 66.3945641 16.2307692L67.3065641 16.2307692zM67.4865641 12.8587692C67.4865641 12.6907692 67.5225641 12.5467692 67.5465641 12.4267692 67.7625641 11.6227692 68.4345641 11.1307692 69.1545641 11.1307692 70.2825641 11.1307692 70.8825641 12.1267692 70.8825641 13.2907692 70.8825641 14.6227692 70.2225641 15.5227692 69.1185641 15.5227692 68.3505641 15.5227692 67.7385641 15.0187692 67.5345641 14.2867692 67.5105641 14.1667692 67.4865641 14.0347692 67.4865641 13.9027692L67.4865641 12.8587692zM73.5105641 16.2307692L74.5665641 16.2307692 74.5665641 7.71076923 73.5105641 7.71076923 73.5105641 16.2307692zM81.2505641 13.5187692C81.2625641 13.4107692 81.2865641 13.2427692 81.2865641 13.0267692 81.2865641 11.9587692 80.7825641 10.2907692 78.8865641 10.2907692 77.1945641 10.2907692 76.1625641 11.6707692 76.1625641 13.4227692 76.1625641 15.1747692 77.2305641 16.3507692 79.0185641 16.3507692 79.9425641 16.3507692 80.5785641 16.1587692 80.9505641 15.9907692L80.7705641 15.2347692C80.3745641 15.4027692 79.9185641 15.5347692 79.1625641 15.5347692 78.1065641 15.5347692 77.1945641 14.9467692 77.1705641 13.5187692L81.2505641 13.5187692zM77.1825641 12.7627692C77.2665641 12.0307692 77.7345641 11.0467692 78.8025641 11.0467692 79.9905641 11.0467692 80.2785641 12.0907692 80.2665641 12.7627692L77.1825641 12.7627692zM88.078564 10.2907692C86.470564 10.2907692 85.198564 11.4307692 85.198564 13.3747692 85.198564 15.2107692 86.410564 16.3627692 87.982564 16.3627692 89.386564 16.3627692 90.874564 15.4267692 90.874564 13.2787692 90.874564 11.5027692 89.746564 10.2907692 88.078564 10.2907692zM88.054564 11.0827692C89.302564 11.0827692 89.794564 12.3307692 89.794564 13.3147692 89.794564 14.6227692 89.038564 15.5707692 88.030564 15.5707692 86.998564 15.5707692 86.266564 14.6107692 86.266564 13.3387692 86.266564 12.2347692 86.806564 11.0827692 88.054564 11.0827692zM92.446564 16.2307692L93.502564 16.2307692 93.502564 12.7387692C93.502564 12.5587692 93.526564 12.3787692 93.574564 12.2467692 93.754564 11.6587692 94.294564 11.1667692 94.990564 11.1667692 95.986564 11.1667692 96.334564 11.9467692 96.334564 12.8827692L96.334564 16.2307692 97.390564 16.2307692 97.390564 12.7627692C97.390564 10.7707692 96.142564 10.2907692 95.338564 10.2907692 94.378564 10.2907692 93.706564 10.8307692 93.418564 11.3827692L93.394564 11.3827692 93.334564 10.4227692 92.398564 10.4227692C92.434564 10.9027692 92.446564 11.3947692 92.446564 11.9947692L92.446564 16.2307692zM102.370564 9.0307692L102.370564 10.4227692 101.470564 10.4227692 101.470564 11.2267692 102.370564 11.2267692 102.370564 14.3947692C102.370564 15.0787692 102.478564 15.5947692 102.778564 15.9067692 103.030564 16.1947692 103.426564 16.3507692 103.918564 16.3507692 104.326564 16.3507692 104.650564 16.2907692 104.854564 16.2067692L104.806564 15.4147692C104.674564 15.4507692 104.470564 15.4867692 104.194564 15.4867692 103.606564 15.4867692 103.402564 15.0787692 103.402564 14.3587692L103.402564 11.2267692 104.914564 11.2267692 104.914564 10.4227692 103.402564 10.4227692 103.402564 8.75476923 102.370564 9.0307692zM106.342564 16.2307692L107.398564 16.2307692 107.398564 12.7267692C107.398564 12.5227692 107.410564 12.3667692 107.470564 12.2227692 107.662564 11.6467692 108.202564 11.1667692 108.886564 11.1667692 109.882564 11.1667692 110.230564 11.9587692 110.230564 12.8947692L110.230564 16.2307692 111.286564 16.2307692 111.286564 12.7747692C111.286564 10.7707692 110.038564 10.2907692 109.258564 10.2907692 108.862564 10.2907692 108.490564 10.4107692 108.178564 10.5907692 107.854564 10.7707692 107.590564 11.0347692 107.422564 11.3347692L107.398564 11.3347692 107.398564 7.71076923 106.342564 7.71076923 106.342564 16.2307692zM117.910564 13.5187692C117.922564 13.4107692 117.946564 13.2427692 117.946564 13.0267692 117.946564 11.9587692 117.442564 10.2907692 115.546564 10.2907692 113.854564 10.2907692 112.822564 11.6707692 112.822564 13.4227692 112.822564 15.1747692 113.890564 16.3507692 115.678564 16.3507692 116.602564 16.3507692 117.238564 16.1587692 117.610564 15.9907692L117.430564 15.2347692C117.034564 15.4027692 116.578564 15.5347692 115.822564 15.5347692 114.766564 15.5347692 113.854564 14.9467692 113.830564 13.5187692L117.910564 13.5187692zM113.842564 12.7627692C113.926564 12.0307692 114.394564 11.0467692 115.462564 11.0467692 116.650564 11.0467692 116.938564 12.0907692 116.926564 12.7627692L113.842564 12.7627692zM43.8022408 30.2270847L45.4493558 35.0769231 47.5768792 35.0769231 42.3152621 19.6580973 39.9132195 19.6580973 34.674479 35.0769231 36.7333727 35.0769231 38.3347344 30.2270847 43.8022408 30.2270847zM38.7465131 28.6714762L40.2563684 24.2105399C40.5537642 23.2725995 40.8054068 22.3346591 41.0341727 21.4195952L41.0799259 21.4195952C41.3086919 22.3117825 41.5374578 23.2268463 41.8806068 24.2334165L43.3904621 28.6714762 38.7465131 28.6714762zM48.8944027 39.6064891L50.8846666 39.6064891 50.8846666 33.5899443 50.9304198 33.5899443C51.5938411 34.6880209 52.8749305 35.3285656 54.3390326 35.3285656 56.9469646 35.3285656 59.3718838 33.3611784 59.3718838 29.3806507 59.3718838 26.017791 57.3587433 23.753008 54.6821816 23.753008 52.8749305 23.753008 51.5709645 24.5536889 50.747407 25.903408L50.7016538 25.903408 50.6101475 24.0046506 48.8028964 24.0046506C48.8486496 25.056974 48.8944027 26.2008038 48.8944027 27.6191528L48.8944027 39.6064891zM50.8846666 28.6714762C50.8846666 28.396957 50.9532964 28.0995613 51.0219262 27.8479187 51.4108283 26.3380634 52.6919177 25.3543697 54.0645135 25.3543697 56.1920369 25.3543697 57.3587433 27.2531272 57.3587433 29.472157 57.3587433 32.0114592 56.1234071 33.7500805 53.9958837 33.7500805 52.5546581 33.7500805 51.3421985 32.7892635 50.976173 31.3937911 50.9304198 31.1421486 50.8846666 30.8676294 50.8846666 30.5702336L50.8846666 28.6714762zM61.101186 39.6064891L63.0914499 39.6064891 63.0914499 33.5899443 63.1372031 33.5899443C63.8006244 34.6880209 65.0817138 35.3285656 66.5458159 35.3285656 69.1537479 35.3285656 71.578667 33.3611784 71.578667 29.3806507 71.578667 26.017791 69.5655266 23.753008 66.8889648 23.753008 65.0817138 23.753008 63.7777478 24.5536889 62.9541903 25.903408L62.9084371 25.903408 62.8169307 24.0046506 61.0096797 24.0046506C61.0554328 25.056974 61.101186 26.2008038 61.101186 27.6191528L61.101186 39.6064891zM63.0914499 28.6714762C63.0914499 28.396957 63.1600797 28.0995613 63.2287095 27.8479187 63.6176116 26.3380634 64.898701 25.3543697 66.2712968 25.3543697 68.3988202 25.3543697 69.5655266 27.2531272 69.5655266 29.472157 69.5655266 32.0114592 68.3301904 33.7500805 66.202667 33.7500805 64.7614414 33.7500805 63.5489818 32.7892635 63.1829563 31.3937911 63.1372031 31.1421486 63.0914499 30.8676294 63.0914499 30.5702336L63.0914499 28.6714762zM76.6386333 34.3219954C77.4621908 34.8710337 79.0864291 35.305689 80.5734079 35.305689 84.2107866 35.305689 85.9722845 33.2467954 85.9722845 30.8676294 85.9722845 28.6028464 84.645442 27.3446336 82.03751 26.3380634 79.9099866 25.5145059 78.9720461 24.8053314 78.9720461 23.3641059 78.9720461 22.3117825 79.772727 21.0535697 81.8773738 21.0535697 83.2728462 21.0535697 84.302293 21.5111016 84.8055781 21.7856208L85.3546164 20.1613824C84.6683186 19.7724803 83.5244888 19.4064548 81.9460036 19.4064548 78.9491695 19.4064548 76.9589057 21.1908293 76.9589057 23.5928718 76.9589057 25.7661485 78.5145142 27.0701144 81.0309398 27.9623017 83.11271 28.7629826 83.9362675 29.58654 83.9362675 31.0277656 83.9362675 32.5833741 82.7466845 33.6585741 80.7106674 33.6585741 79.3380717 33.6585741 78.0341057 33.2010422 77.1419185 32.6520039L76.6386333 34.3219954zM88.2048719 21.3509654L88.2048719 24.0046506 86.4891272 24.0046506 86.4891272 25.5373825 88.2048719 25.5373825 88.2048719 31.5768039C88.2048719 32.8807699 88.4107613 33.8644635 88.9826762 34.459255 89.4630847 35.0082933 90.2180124 35.305689 91.1559528 35.305689 91.9337571 35.305689 92.5514252 35.1913061 92.9403273 35.0311699L92.8488209 33.5213145C92.5971784 33.5899443 92.2082763 33.6585741 91.6821145 33.6585741 90.5611613 33.6585741 90.1722592 32.8807699 90.1722592 31.5081741L90.1722592 25.5373825 93.0547103 25.5373825 93.0547103 24.0046506 90.1722592 24.0046506 90.1722592 20.8248037 88.2048719 21.3509654zM99.0619361 23.753008C95.9964722 23.753008 93.571553 25.9262846 93.571553 29.6322932 93.571553 33.1324124 95.8820892 35.3285656 98.8789233 35.3285656 101.555485 35.3285656 104.392183 33.5441911 104.392183 29.4492804 104.392183 26.0635442 102.241783 23.753008 99.0619361 23.753008zM99.0161829 25.2628634C101.395349 25.2628634 102.333289 27.6420293 102.333289 29.5179102 102.333289 32.0114592 100.892064 33.8187103 98.9704297 33.8187103 97.0030424 33.8187103 95.60757 31.9885826 95.60757 29.5636634 95.60757 27.4590166 96.6370169 25.2628634 99.0161829 25.2628634zM106.121485 35.0769231L108.111749 35.0769231 108.111749 29.1747613C108.111749 28.8316123 108.157502 28.51134 108.203255 28.2368208 108.477775 26.7269655 109.484345 25.6517655 110.902694 25.6517655 111.177213 25.6517655 111.383102 25.6746421 111.588992 25.7203953L111.588992 23.8216378C111.405979 23.7758846 111.245843 23.753008 111.017077 23.753008 109.667358 23.753008 108.454898 24.6909485 107.951613 26.1779272L107.860107 26.1779272 107.791477 24.0046506 106.029979 24.0046506C106.098609 25.0340974 106.121485 26.1550506 106.121485 27.4590166L106.121485 35.0769231zM121.462362 29.9068124C121.485239 29.700923 121.530992 29.3806507 121.530992 28.9688719 121.530992 26.9328549 120.570175 23.753008 116.955673 23.753008 113.730073 23.753008 111.762685 26.3838166 111.762685 29.7237996 111.762685 33.0637826 113.798702 35.305689 117.207315 35.305689 118.968813 35.305689 120.181273 34.9396635 120.890447 34.6193912L120.547298 33.1781656C119.792371 33.4984379 118.92306 33.7500805 117.481834 33.7500805 115.468694 33.7500805 113.730073 32.6291273 113.68432 29.9068124L121.462362 29.9068124zM113.707196 28.4655868C113.867332 27.0701144 114.75952 25.1942336 116.795537 25.1942336 119.06032 25.1942336 119.609358 27.1844974 119.586481 28.4655868L113.707196 28.4655868z"/>
  </g>
</svg>
