<?xml version="1.0" standalone="no"?>
<!DOCTYPE svg PUBLIC "-//W3C//DTD SVG 20010904//EN"
 "http://www.w3.org/TR/2001/REC-SVG-20010904/DTD/svg10.dtd">
<svg version="1.0" xmlns="http://www.w3.org/2000/svg"
 width="788.000000pt" height="225.000000pt" viewBox="0 0 788.000000 225.000000"
 preserveAspectRatio="xMidYMid meet">
<metadata>
Created by potrace 1.15, written by Peter Selinger 2001-2017
</metadata>
<g transform="translate(0.000000,225.000000) scale(0.100000,-0.100000)"
fill="#000000" stroke="none">
<path d="M1162 2215 c-235 -43 -441 -145 -585 -289 -92 -93 -131 -174 -136
-279 -4 -100 12 -156 57 -203 49 -51 110 -75 203 -81 67 -5 82 -3 99 12 24 22
25 60 4 111 -12 29 -15 57 -11 112 7 97 49 185 118 253 28 27 53 49 54 47 2
-2 -65 -269 -148 -595 l-152 -592 -30 29 c-45 44 -100 62 -201 68 -154 8 -243
-24 -327 -118 -57 -63 -81 -132 -81 -225 0 -106 25 -168 98 -241 50 -50 74
-65 131 -85 63 -21 86 -24 220 -23 129 1 161 4 232 26 106 32 181 78 256 158
66 69 115 152 148 247 25 72 399 1593 399 1622 0 12 -9 30 -20 41 -18 18 -33
20 -137 19 -65 0 -151 -7 -191 -14z m288 -53 c0 -18 -380 -1550 -394 -1590
-95 -267 -295 -402 -593 -402 -175 0 -292 55 -347 164 -26 49 -30 70 -30 131
0 61 4 82 29 131 57 111 159 160 314 152 112 -6 161 -30 185 -89 16 -39 15
-105 -1 -131 -2 -5 -25 3 -51 17 -80 42 -177 30 -231 -29 -19 -20 -26 -40 -29
-85 -4 -53 -2 -61 27 -93 38 -44 100 -63 168 -53 63 9 121 66 152 150 24 63
412 1568 406 1573 -10 11 -129 -62 -182 -112 -119 -110 -174 -295 -128 -426 8
-23 15 -45 15 -48 0 -12 -133 9 -169 27 -63 33 -85 73 -90 163 -3 69 0 84 26
140 87 183 352 350 640 402 85 15 283 21 283 8z m-904 -1678 c24 -14 44 -29
44 -32 0 -4 -10 -25 -23 -47 -53 -93 -208 -80 -207 18 1 82 96 114 186 61z"/>
<path d="M1646 2136 c-21 -8 -59 -34 -83 -58 -104 -102 -87 -262 36 -339 l45
-29 -80 0 c-65 0 -84 -3 -97 -18 -10 -11 -55 -173 -108 -388 -116 -468 -121
-555 -39 -659 66 -83 142 -115 273 -115 125 0 257 44 342 113 l30 25 45 -42
c69 -65 140 -88 286 -94 136 -5 237 14 349 66 112 53 236 176 296 295 l25 48
12 -83 c25 -176 109 -268 283 -313 90 -24 286 -16 384 15 80 25 175 71 223
107 l33 25 53 -50 c29 -27 66 -56 82 -65 164 -85 479 -51 639 68 35 26 115 68
115 60 0 -3 -34 -145 -76 -316 -72 -294 -75 -311 -60 -334 9 -14 26 -27 39
-30 27 -7 402 69 421 85 8 6 38 108 67 226 54 215 54 215 79 209 14 -4 69 -9
122 -12 229 -13 416 81 543 272 31 47 40 56 43 40 14 -82 35 -127 87 -183 108
-117 308 -161 501 -112 110 28 176 64 259 142 117 109 191 245 226 416 7 34
18 62 24 62 5 0 20 3 32 6 21 6 21 6 -8 -108 -42 -163 -51 -235 -38 -304 30
-162 141 -242 323 -232 98 6 143 26 209 97 116 124 115 231 -3 231 -44 0 -50
3 -50 20 0 16 94 403 141 583 l10 37 58 0 c70 0 93 20 111 98 11 49 11 56 -7
80 -16 21 -30 28 -67 30 -25 2 -46 4 -46 5 0 1 15 61 34 133 51 203 48 205
-215 174 -101 -11 -192 -23 -202 -26 -25 -8 -41 -45 -72 -171 -26 -110 -28
-113 -55 -113 -37 0 -60 -29 -75 -94 -14 -61 -5 -93 31 -111 17 -9 19 -15 11
-46 -7 -30 -14 -38 -46 -48 -57 -17 -81 -14 -81 8 0 10 -9 49 -21 87 -28 90
-107 173 -190 199 -138 43 -318 25 -468 -46 -97 -47 -210 -152 -278 -257 l-40
-63 -6 63 c-13 158 -91 262 -227 302 -66 20 -187 21 -258 2 l-52 -13 0 28 c0
16 -9 38 -20 49 -19 19 -33 20 -214 20 -170 0 -196 -2 -215 -17 -17 -14 -39
-92 -110 -382 -84 -344 -107 -411 -129 -386 -8 10 -32 277 -52 584 -8 123 -12
148 -29 165 -24 23 -45 23 -264 -3 -171 -21 -197 -32 -212 -88 -26 -104 -247
-550 -278 -562 -26 -9 -95 -84 -111 -119 -40 -88 -233 -168 -357 -147 -34 6
-43 13 -55 41 -8 18 -14 46 -14 62 0 28 3 30 49 36 63 8 177 47 244 83 78 42
201 167 234 239 32 71 43 189 22 261 -17 63 -79 124 -150 149 -86 30 -279 26
-384 -9 -44 -14 -102 -40 -129 -57 -106 -67 -227 -206 -279 -318 l-24 -52 -5
92 c-8 127 -35 198 -102 264 -34 32 -70 57 -101 67 -65 23 -162 31 -208 19
-20 -6 -37 -7 -37 -4 0 4 20 85 44 181 48 187 48 213 2 231 -16 6 -87 1 -215
-14 -157 -18 -195 -25 -211 -42 -14 -14 -53 -154 -145 -529 -69 -281 -133
-528 -143 -550 -22 -50 -57 -92 -93 -110 -36 -19 -89 -20 -89 -1 0 7 41 178
90 380 50 202 90 379 90 395 0 29 -26 61 -51 61 -8 0 1 8 19 17 18 9 49 34 68
56 92 108 63 260 -64 334 -37 22 -60 27 -126 30 -54 2 -94 -2 -120 -11z m203
-66 c147 -74 125 -259 -36 -306 -178 -52 -329 124 -223 259 50 64 180 88 259
47z m761 -15 c0 -9 -20 -98 -45 -198 -25 -100 -49 -198 -54 -218 l-8 -37 56
26 c45 21 71 26 136 27 144 0 230 -63 270 -199 22 -74 20 -245 -5 -342 -67
-267 -248 -457 -485 -509 -54 -12 -107 -16 -183 -13 -95 3 -115 7 -174 35 -65
31 -128 94 -128 130 0 18 -1 18 -53 -31 -58 -54 -164 -110 -238 -126 -79 -18
-203 -9 -255 18 -86 44 -132 142 -120 256 3 34 46 221 94 416 l87 355 178 3
c139 2 177 0 177 -10 0 -8 -40 -177 -90 -377 -49 -201 -90 -377 -90 -393 0
-15 10 -38 21 -49 32 -32 124 -23 181 17 82 57 89 77 233 654 73 292 134 532
136 534 2 2 81 12 174 23 94 11 173 21 178 22 4 0 7 -6 7 -14z m5120 -87 c0
-7 -18 -82 -39 -165 l-39 -153 75 0 c66 0 74 -2 69 -17 -3 -10 -8 -30 -12 -45
-6 -27 -8 -28 -79 -28 l-73 0 -81 -327 c-45 -181 -81 -347 -81 -369 0 -54 17
-67 85 -66 30 0 55 -4 55 -9 0 -5 -9 -27 -20 -49 -55 -109 -137 -155 -261
-148 -105 6 -157 37 -195 113 -40 82 -36 149 20 372 25 100 46 184 46 187 0 3
-18 -1 -40 -9 -21 -8 -66 -19 -99 -26 -59 -11 -61 -13 -67 -48 -57 -344 -259
-564 -540 -588 -141 -12 -301 39 -363 114 -85 103 -90 282 -16 490 67 189 185
332 329 404 171 84 369 92 477 20 74 -50 102 -107 124 -255 l6 -38 52 6 c29 4
77 14 109 22 l56 16 21 84 c12 46 21 88 21 94 0 5 -16 10 -35 10 -37 0 -40 5
-29 59 6 29 9 31 48 31 l42 0 34 141 c19 78 39 143 45 145 9 4 300 41 338 43
9 1 17 -5 17 -11z m-2270 -250 c0 -7 -7 -38 -15 -68 -8 -30 -15 -58 -15 -62 0
-4 19 4 43 17 93 52 243 70 343 40 66 -19 126 -72 155 -137 22 -48 24 -66 24
-203 0 -123 -4 -165 -22 -230 -87 -318 -281 -485 -564 -485 -89 0 -158 17
-191 47 -10 9 -18 14 -19 12 -1 -2 -29 -114 -63 -249 l-61 -245 -184 -38
c-101 -21 -185 -36 -187 -35 -3 3 167 702 182 751 4 13 -13 5 -63 -26 -37 -25
-88 -55 -113 -67 -25 -13 -58 -33 -75 -45 -42 -32 -121 -69 -180 -86 -63 -18
-275 -19 -332 -1 -67 20 -135 72 -168 128 l-31 51 -56 -43 c-77 -60 -183 -111
-280 -136 -120 -30 -288 -23 -373 16 -147 67 -203 193 -175 390 58 408 334
673 680 653 101 -6 159 -27 199 -73 35 -39 45 -82 39 -163 -14 -191 -209 -354
-483 -404 l-70 -12 0 -70 c0 -84 18 -131 57 -151 99 -51 306 -9 419 85 21 17
50 55 67 84 18 33 43 60 65 71 57 31 178 249 278 500 29 72 54 133 56 136 2 2
85 14 183 25 l179 21 5 -51 c3 -27 8 -97 11 -155 4 -58 15 -208 26 -335 11
-126 17 -242 13 -257 -3 -16 -2 -28 3 -28 14 0 126 69 144 88 9 10 54 172 104
377 48 198 90 363 92 368 2 4 83 7 179 7 133 0 174 -3 174 -12z"/>
<path d="M2522 1488 c-29 -6 -46 -16 -52 -31 -20 -45 -140 -535 -140 -568 0
-51 35 -81 102 -86 45 -4 60 0 99 25 130 84 234 398 185 564 -28 98 -78 122
-194 96z m111 -63 c81 -81 6 -428 -114 -529 -53 -45 -129 -48 -129 -5 0 16 75
329 121 501 7 26 16 38 32 41 47 9 76 6 90 -8z"/>
<path d="M6635 1506 c-166 -100 -313 -588 -210 -692 28 -28 99 -33 144 -10 85
45 173 197 210 364 8 40 7 44 -14 54 -63 28 -57 135 9 184 23 17 25 23 16 59
-5 22 -17 45 -26 52 -28 20 -85 15 -129 -11z m95 -42 c0 -3 -11 -19 -25 -36
-52 -61 -56 -171 -10 -227 24 -28 25 -29 9 -82 -34 -114 -103 -228 -155 -255
-81 -41 -109 4 -90 147 27 208 161 459 246 459 14 0 25 -3 25 -6z"/>
<path d="M3655 1531 c-51 -30 -115 -111 -155 -196 -39 -81 -76 -192 -67 -202
3 -2 33 3 67 13 78 22 165 85 209 150 57 86 75 197 40 240 -16 19 -58 17 -94
-5z m51 -82 c-9 -59 -48 -130 -94 -171 -43 -39 -81 -62 -88 -55 -8 8 51 131
86 182 26 38 81 85 99 85 2 0 1 -18 -3 -41z"/>
<path d="M5458 1471 c-26 -17 -53 -40 -62 -53 -8 -13 -46 -153 -86 -313 l-71
-290 22 -17 c28 -24 112 -23 164 1 87 39 162 150 205 302 27 92 38 270 21 322
-27 81 -109 101 -193 48z m126 -53 c32 -46 13 -248 -34 -368 -50 -127 -132
-210 -208 -210 -31 0 -34 2 -28 23 3 12 31 128 62 257 31 129 63 245 71 258
18 29 71 62 100 62 12 0 29 -10 37 -22z"/>
<path d="M4331 1350 c-14 -34 -53 -113 -88 -177 l-63 -115 25 -30 c29 -34 31
-57 10 -98 -21 -40 -68 -64 -117 -57 -34 5 -38 3 -38 -17 0 -98 184 -130 280
-49 47 39 60 73 60 155 0 70 -23 314 -38 406 l-7 43 -24 -61z m5 -316 c8 -143
-2 -172 -66 -198 -72 -29 -82 -21 -35 27 53 52 67 113 40 170 -16 34 -16 36
10 87 16 32 30 49 36 43 5 -5 12 -63 15 -129z"/>
</g>
</svg>
